<svg height="485pt" viewBox="-2 0 485 485.656" width="485pt" xmlns="http://www.w3.org/2000/svg"><path d="m64.328125 421.65625v-368h32l-48-48-48 48h32v400h400v32l48-48-48-48v32zm0 0" fill="#444a53"/><path d="m480.328125 437.65625-48-48v32h-368v-368h32l-48-48v432zm0 0" fill="#666d77"/><path d="m96.328125 293.65625h48v128h-48zm0 0" fill="#5789d6"/><path d="m96.328125 293.65625h24v128h-24zm0 0" fill="#699ce6"/><path d="m176.328125 309.65625h48v112h-48zm0 0" fill="#98be61"/><path d="m176.328125 309.65625h24v112h-24zm0 0" fill="#abd176"/><path d="m256.328125 245.65625h48v176h-48zm0 0" fill="#ca5057"/><path d="m256.328125 245.65625h24v176h-24zm0 0" fill="#dc6068"/><path d="m336.328125 181.65625h48v240h-48zm0 0" fill="#eebc5a"/><path d="m336.328125 181.65625h24v240h-24zm0 0" fill="#f8cf6a"/><path d="m92.65625 276.382812-8.648438-13.453124 112-72c2.230469-1.433594 5.03125-1.671876 7.480469-.625l51.246094 21.96875 92.195313-84.511719c1.46875-1.355469 3.398437-2.105469 5.398437-2.105469h96v16h-92.886719l-93.707031 85.894531c-2.320313 2.128907-5.671875 2.695313-8.558594 1.457031l-52.097656-22.328124zm0 0" fill="#abd176"/><path d="m192.328125 285.65625c-1.464844 0-2.921875-.410156-4.191406-1.183594l-104-64 8.382812-13.625 96.351563 59.296875 108.207031-231.871093c1.3125-2.816407 4.136719-4.617188 7.25-4.617188h48v16h-42.902344l-109.839843 235.382812c-.96875 2.074219-2.769532 3.625-4.953126 4.28125-.761718.222657-1.535156.335938-2.304687.335938zm0 0" fill="#699ce6"/><path d="m91.679688 172.921875-6.703126-14.53125 104-48c1.703126-.789063 3.640626-.949219 5.457032-.453125l84.277344 22.984375 116.890624-85.722656c1.367188-1 3.023438-1.542969 4.726563-1.542969h72v16h-69.382813l-117.890624 86.457031c-1.964844 1.429688-4.480469 1.886719-6.832032 1.261719l-85.183594-23.230469zm0 0" fill="#dc6068"/><path d="m325.984375 75.3125-11.3125-11.3125 26.34375-26.34375-26.34375-26.34375 11.3125-11.3125 32 32c3.128906 3.128906 3.128906 8.183594 0 11.3125zm0 0" fill="#5789d6"/><path d="m445.984375 91.3125-11.3125-11.3125 26.34375-26.34375-26.34375-26.34375 11.3125-11.3125 32 32c3.128906 3.128906 3.128906 8.183594 0 11.3125zm0 0" fill="#ca5057"/><path d="m421.984375 171.3125-11.3125-11.3125 26.34375-26.34375-26.34375-26.34375 11.3125-11.3125 32 32c3.128906 3.128906 3.128906 8.183594 0 11.3125zm0 0" fill="#98be61"/></svg>